<svg width="97" height="37" viewBox="0 0 97 37" fill="none" xmlns="http://www.w3.org/2000/svg">
<path d="M16.0909 36.7273C12.8182 36.7273 10 35.9545 7.63636 34.4091C5.27273 32.8636 3.45455 30.7348 2.18182 28.0227C0.909091 25.3106 0.272727 22.2121 0.272727 18.7273C0.272727 15.1818 0.924243 12.053 2.22727 9.34091C3.54545 6.61364 5.37879 4.48485 7.72727 2.95454C10.0909 1.40909 12.8485 0.636364 16 0.636364C18.4545 0.636364 20.6667 1.09091 22.6364 2C24.6061 2.90909 26.2197 4.18182 27.4773 5.81818C28.7348 7.45454 29.5152 9.36364 29.8182 11.5455H24.4545C24.0455 9.95454 23.1364 8.54545 21.7273 7.31818C20.3333 6.07576 18.4545 5.45454 16.0909 5.45454C14 5.45454 12.1667 6 10.5909 7.09091C9.0303 8.16667 7.81061 9.68939 6.93182 11.6591C6.06818 13.6136 5.63636 15.9091 5.63636 18.5455C5.63636 21.2424 6.06061 23.5909 6.90909 25.5909C7.77273 27.5909 8.98485 29.1439 10.5455 30.25C12.1212 31.3561 13.9697 31.9091 16.0909 31.9091C17.4848 31.9091 18.75 31.6667 19.8864 31.1818C21.0227 30.697 21.9848 30 22.7727 29.0909C23.5606 28.1818 24.1212 27.0909 24.4545 25.8182H29.8182C29.5152 27.8788 28.7652 29.7348 27.5682 31.3864C26.3864 33.0227 24.8182 34.3258 22.8636 35.2955C20.9242 36.25 18.6667 36.7273 16.0909 36.7273ZM62.3864 8.90909L57.5682 10.2727C57.2652 9.4697 56.8182 8.68939 56.2273 7.93182C55.6515 7.15909 54.8636 6.52273 53.8636 6.02273C52.8636 5.52273 51.5833 5.27273 50.0227 5.27273C47.8864 5.27273 46.1061 5.76515 44.6818 6.75C43.2727 7.7197 42.5682 8.95454 42.5682 10.4545C42.5682 11.7879 43.053 12.8409 44.0227 13.6136C44.9924 14.3864 46.5076 15.0303 48.5682 15.5455L53.75 16.8182C56.8712 17.5758 59.197 18.7348 60.7273 20.2955C62.2576 21.8409 63.0227 23.8333 63.0227 26.2727C63.0227 28.2727 62.447 30.0606 61.2955 31.6364C60.1591 33.2121 58.5682 34.4545 56.5227 35.3636C54.4773 36.2727 52.0985 36.7273 49.3864 36.7273C45.8258 36.7273 42.8788 35.9545 40.5455 34.4091C38.2121 32.8636 36.7348 30.6061 36.1136 27.6364L41.2045 26.3636C41.6894 28.2424 42.6061 29.6515 43.9545 30.5909C45.3182 31.5303 47.0985 32 49.2955 32C51.7955 32 53.7803 31.4697 55.25 30.4091C56.7348 29.3333 57.4773 28.0455 57.4773 26.5455C57.4773 25.3333 57.053 24.3182 56.2045 23.5C55.3561 22.6667 54.053 22.0455 52.2955 21.6364L46.4773 20.2727C43.2803 19.5152 40.9318 18.3409 39.4318 16.75C37.947 15.1439 37.2045 13.1364 37.2045 10.7273C37.2045 8.75757 37.7576 7.01515 38.8636 5.5C39.9848 3.98485 41.5076 2.79545 43.4318 1.93182C45.3712 1.06818 47.5682 0.636364 50.0227 0.636364C53.4773 0.636364 56.1894 1.39394 58.1591 2.90909C60.1439 4.42424 61.553 6.42424 62.3864 8.90909ZM95.8239 8.90909L91.0057 10.2727C90.7027 9.4697 90.2557 8.68939 89.6648 7.93182C89.089 7.15909 88.3011 6.52273 87.3011 6.02273C86.3011 5.52273 85.0208 5.27273 83.4602 5.27273C81.3239 5.27273 79.5436 5.76515 78.1193 6.75C76.7102 7.7197 76.0057 8.95454 76.0057 10.4545C76.0057 11.7879 76.4905 12.8409 77.4602 13.6136C78.4299 14.3864 79.9451 15.0303 82.0057 15.5455L87.1875 16.8182C90.3087 17.5758 92.6345 18.7348 94.1648 20.2955C95.6951 21.8409 96.4602 23.8333 96.4602 26.2727C96.4602 28.2727 95.8845 30.0606 94.733 31.6364C93.5966 33.2121 92.0057 34.4545 89.9602 35.3636C87.9148 36.2727 85.536 36.7273 82.8239 36.7273C79.2633 36.7273 76.3163 35.9545 73.983 34.4091C71.6496 32.8636 70.1723 30.6061 69.5511 27.6364L74.642 26.3636C75.1269 28.2424 76.0436 29.6515 77.392 30.5909C78.7557 31.5303 80.536 32 82.733 32C85.233 32 87.2178 31.4697 88.6875 30.4091C90.1723 29.3333 90.9148 28.0455 90.9148 26.5455C90.9148 25.3333 90.4905 24.3182 89.642 23.5C88.7936 22.6667 87.4905 22.0455 85.733 21.6364L79.9148 20.2727C76.7178 19.5152 74.3693 18.3409 72.8693 16.75C71.3845 15.1439 70.642 13.1364 70.642 10.7273C70.642 8.75757 71.1951 7.01515 72.3011 5.5C73.4223 3.98485 74.9451 2.79545 76.8693 1.93182C78.8087 1.06818 81.0057 0.636364 83.4602 0.636364C86.9148 0.636364 89.6269 1.39394 91.5966 2.90909C93.5814 4.42424 94.9905 6.42424 95.8239 8.90909Z" fill="#00C4F0"/>
</svg>
