<svg width="121" height="76" viewBox="0 0 121 76" fill="none" xmlns="http://www.w3.org/2000/svg">
<path d="M32.6477 1.27273H41.4545V53.2614C41.4545 57.9015 40.6023 61.8433 38.8977 65.0866C37.1932 68.33 34.7902 70.7921 31.6889 72.473C28.5876 74.1539 24.9299 74.9943 20.7159 74.9943C16.7386 74.9943 13.1993 74.2723 10.098 72.8281C6.99669 71.3603 4.55824 69.277 2.78267 66.5781C1.0071 63.8793 0.119318 60.6714 0.119318 56.9545H8.78409C8.78409 59.0142 9.29309 60.8134 10.3111 62.3523C11.3527 63.8674 12.7732 65.0511 14.5724 65.9034C16.3717 66.7557 18.4195 67.1818 20.7159 67.1818C23.2491 67.1818 25.4034 66.6491 27.179 65.5838C28.9545 64.5185 30.304 62.956 31.2273 60.8963C32.1742 58.813 32.6477 56.268 32.6477 53.2614V1.27273ZM111.376 19.4545C110.95 15.8561 109.222 13.0625 106.192 11.0739C103.161 9.08523 99.4446 8.09091 95.0412 8.09091C91.8215 8.09091 89.0043 8.61174 86.5895 9.65341C84.1984 10.6951 82.3281 12.1274 80.9787 13.9503C79.6529 15.7732 78.9901 17.8447 78.9901 20.1648C78.9901 22.1061 79.4517 23.7751 80.375 25.1719C81.322 26.545 82.5294 27.6932 83.9972 28.6165C85.465 29.5161 87.0038 30.2618 88.6136 30.8537C90.2235 31.4219 91.7031 31.8835 93.0526 32.2386L100.439 34.2273C102.333 34.7244 104.44 35.411 106.76 36.2869C109.104 37.1629 111.341 38.3584 113.472 39.8736C115.626 41.3651 117.402 43.2827 118.798 45.6264C120.195 47.9702 120.893 50.8466 120.893 54.2557C120.893 58.1856 119.864 61.7367 117.804 64.9091C115.768 68.0814 112.785 70.6027 108.855 72.473C104.949 74.3433 100.202 75.2784 94.6151 75.2784C89.4067 75.2784 84.8968 74.438 81.0852 72.7571C77.2973 71.0762 74.3144 68.7325 72.1364 65.7259C69.982 62.7192 68.7628 59.2273 68.4787 55.25H77.5696C77.8063 57.9962 78.7296 60.2689 80.3395 62.0682C81.973 63.8437 84.0327 65.1695 86.5185 66.0455C89.0279 66.8977 91.7268 67.3239 94.6151 67.3239C97.9768 67.3239 100.995 66.7794 103.67 65.6903C106.346 64.5777 108.464 63.0388 110.027 61.0739C111.589 59.0852 112.371 56.7652 112.371 54.1136C112.371 51.6989 111.696 49.7339 110.347 48.2188C108.997 46.7036 107.222 45.4725 105.02 44.5256C102.818 43.5786 100.439 42.75 97.8821 42.0398L88.9332 39.483C83.2514 37.8494 78.7533 35.5175 75.4389 32.4872C72.1245 29.4569 70.4673 25.4915 70.4673 20.5909C70.4673 16.5189 71.5682 12.9678 73.7699 9.9375C75.9953 6.88352 78.9782 4.5161 82.7188 2.83523C86.483 1.13068 90.6851 0.278406 95.3253 0.278406C100.013 0.278406 104.179 1.11884 107.825 2.79971C111.471 4.45691 114.359 6.72964 116.49 9.61789C118.644 12.5062 119.781 15.785 119.899 19.4545H111.376Z" fill="#00C4F0"/>
</svg>
