<svg width="187" height="49" viewBox="0 0 187 49" fill="none" xmlns="http://www.w3.org/2000/svg">
<path d="M28.0909 13.0909C27.8182 10.7879 26.7121 9 24.7727 7.72727C22.8333 6.45454 20.4545 5.81818 17.6364 5.81818C15.5758 5.81818 13.7727 6.15151 12.2273 6.81818C10.697 7.48485 9.5 8.40151 8.63636 9.56818C7.78788 10.7348 7.36364 12.0606 7.36364 13.5455C7.36364 14.7879 7.65909 15.8561 8.25 16.75C8.85606 17.6288 9.62879 18.3636 10.5682 18.9545C11.5076 19.5303 12.4924 20.0076 13.5227 20.3864C14.553 20.75 15.5 21.0455 16.3636 21.2727L21.0909 22.5455C22.303 22.8636 23.6515 23.303 25.1364 23.8636C26.6364 24.4242 28.0682 25.1894 29.4318 26.1591C30.8106 27.1136 31.947 28.3409 32.8409 29.8409C33.7349 31.3409 34.1818 33.1818 34.1818 35.3636C34.1818 37.8788 33.5227 40.1515 32.2045 42.1818C30.9015 44.2121 28.9924 45.8258 26.4773 47.0227C23.9773 48.2197 20.9394 48.8182 17.3636 48.8182C14.0303 48.8182 11.1439 48.2803 8.70455 47.2045C6.2803 46.1288 4.37121 44.6288 2.97727 42.7045C1.59848 40.7803 0.818182 38.5455 0.636364 36H6.45455C6.60606 37.7576 7.19697 39.2121 8.22727 40.3636C9.27273 41.5 10.5909 42.3485 12.1818 42.9091C13.7879 43.4545 15.5152 43.7273 17.3636 43.7273C19.5152 43.7273 21.447 43.3788 23.1591 42.6818C24.8712 41.9697 26.2273 40.9848 27.2273 39.7273C28.2273 38.4545 28.7273 36.9697 28.7273 35.2727C28.7273 33.7273 28.2955 32.4697 27.4318 31.5C26.5682 30.5303 25.4318 29.7424 24.0227 29.1364C22.6136 28.5303 21.0909 28 19.4545 27.5455L13.7273 25.9091C10.0909 24.8636 7.21212 23.3712 5.09091 21.4318C2.9697 19.4924 1.90909 16.9545 1.90909 13.8182C1.90909 11.2121 2.61364 8.93939 4.02273 7C5.44697 5.04545 7.35606 3.5303 9.75 2.45454C12.1591 1.36363 14.8485 0.81818 17.8182 0.81818C20.8182 0.81818 23.4848 1.35606 25.8182 2.43182C28.1515 3.49242 30 4.94697 31.3636 6.79545C32.7424 8.64394 33.4697 10.7424 33.5455 13.0909H28.0909ZM88.9034 16H83.267C82.9337 14.3788 82.3504 12.9545 81.517 11.7273C80.6989 10.5 79.6989 9.4697 78.517 8.63636C77.3504 7.78788 76.0549 7.15151 74.6307 6.72727C73.2064 6.30303 71.7216 6.09091 70.1761 6.09091C67.358 6.09091 64.8049 6.80303 62.517 8.22727C60.2443 9.65151 58.4337 11.75 57.0852 14.5227C55.7519 17.2955 55.0852 20.697 55.0852 24.7273C55.0852 28.7576 55.7519 32.1591 57.0852 34.9318C58.4337 37.7045 60.2443 39.803 62.517 41.2273C64.8049 42.6515 67.358 43.3636 70.1761 43.3636C71.7216 43.3636 73.2064 43.1515 74.6307 42.7273C76.0549 42.303 77.3504 41.6742 78.517 40.8409C79.6989 39.9924 80.6989 38.9545 81.517 37.7273C82.3504 36.4848 82.9337 35.0606 83.267 33.4545H88.9034C88.4792 35.8333 87.7064 37.9621 86.5852 39.8409C85.464 41.7197 84.0701 43.3182 82.4034 44.6364C80.7367 45.9394 78.8655 46.9318 76.7898 47.6136C74.7292 48.2955 72.5246 48.6364 70.1761 48.6364C66.2064 48.6364 62.6761 47.6667 59.5852 45.7273C56.4943 43.7879 54.0625 41.0303 52.2898 37.4545C50.517 33.8788 49.6307 29.6364 49.6307 24.7273C49.6307 19.8182 50.517 15.5758 52.2898 12C54.0625 8.42424 56.4943 5.66667 59.5852 3.72727C62.6761 1.78788 66.2064 0.81818 70.1761 0.81818C72.5246 0.81818 74.7292 1.15909 76.7898 1.84091C78.8655 2.52273 80.7367 3.52273 82.4034 4.84091C84.0701 6.14394 85.464 7.73485 86.5852 9.61364C87.7064 11.4773 88.4792 13.6061 88.9034 16ZM131.466 13.0909C131.193 10.7879 130.087 9 128.148 7.72727C126.208 6.45454 123.83 5.81818 121.011 5.81818C118.951 5.81818 117.148 6.15151 115.602 6.81818C114.072 7.48485 112.875 8.40151 112.011 9.56818C111.163 10.7348 110.739 12.0606 110.739 13.5455C110.739 14.7879 111.034 15.8561 111.625 16.75C112.231 17.6288 113.004 18.3636 113.943 18.9545C114.883 19.5303 115.867 20.0076 116.898 20.3864C117.928 20.75 118.875 21.0455 119.739 21.2727L124.466 22.5455C125.678 22.8636 127.027 23.303 128.511 23.8636C130.011 24.4242 131.443 25.1894 132.807 26.1591C134.186 27.1136 135.322 28.3409 136.216 29.8409C137.11 31.3409 137.557 33.1818 137.557 35.3636C137.557 37.8788 136.898 40.1515 135.58 42.1818C134.277 44.2121 132.367 45.8258 129.852 47.0227C127.352 48.2197 124.314 48.8182 120.739 48.8182C117.405 48.8182 114.519 48.2803 112.08 47.2045C109.655 46.1288 107.746 44.6288 106.352 42.7045C104.973 40.7803 104.193 38.5455 104.011 36H109.83C109.981 37.7576 110.572 39.2121 111.602 40.3636C112.648 41.5 113.966 42.3485 115.557 42.9091C117.163 43.4545 118.89 43.7273 120.739 43.7273C122.89 43.7273 124.822 43.3788 126.534 42.6818C128.246 41.9697 129.602 40.9848 130.602 39.7273C131.602 38.4545 132.102 36.9697 132.102 35.2727C132.102 33.7273 131.67 32.4697 130.807 31.5C129.943 30.5303 128.807 29.7424 127.398 29.1364C125.989 28.5303 124.466 28 122.83 27.5455L117.102 25.9091C113.466 24.8636 110.587 23.3712 108.466 21.4318C106.345 19.4924 105.284 16.9545 105.284 13.8182C105.284 11.2121 105.989 8.93939 107.398 7C108.822 5.04545 110.731 3.5303 113.125 2.45454C115.534 1.36363 118.223 0.81818 121.193 0.81818C124.193 0.81818 126.86 1.35606 129.193 2.43182C131.527 3.49242 133.375 4.94697 134.739 6.79545C136.117 8.64394 136.845 10.7424 136.92 13.0909H131.466ZM180.278 13.0909C180.006 10.7879 178.9 9 176.96 7.72727C175.021 6.45454 172.642 5.81818 169.824 5.81818C167.763 5.81818 165.96 6.15151 164.415 6.81818C162.884 7.48485 161.688 8.40151 160.824 9.56818C159.975 10.7348 159.551 12.0606 159.551 13.5455C159.551 14.7879 159.847 15.8561 160.438 16.75C161.044 17.6288 161.816 18.3636 162.756 18.9545C163.695 19.5303 164.68 20.0076 165.71 20.3864C166.741 20.75 167.688 21.0455 168.551 21.2727L173.278 22.5455C174.491 22.8636 175.839 23.303 177.324 23.8636C178.824 24.4242 180.256 25.1894 181.619 26.1591C182.998 27.1136 184.134 28.3409 185.028 29.8409C185.922 31.3409 186.369 33.1818 186.369 35.3636C186.369 37.8788 185.71 40.1515 184.392 42.1818C183.089 44.2121 181.18 45.8258 178.665 47.0227C176.165 48.2197 173.127 48.8182 169.551 48.8182C166.218 48.8182 163.331 48.2803 160.892 47.2045C158.468 46.1288 156.559 44.6288 155.165 42.7045C153.786 40.7803 153.006 38.5455 152.824 36H158.642C158.794 37.7576 159.384 39.2121 160.415 40.3636C161.46 41.5 162.778 42.3485 164.369 42.9091C165.975 43.4545 167.703 43.7273 169.551 43.7273C171.703 43.7273 173.634 43.3788 175.347 42.6818C177.059 41.9697 178.415 40.9848 179.415 39.7273C180.415 38.4545 180.915 36.9697 180.915 35.2727C180.915 33.7273 180.483 32.4697 179.619 31.5C178.756 30.5303 177.619 29.7424 176.21 29.1364C174.801 28.5303 173.278 28 171.642 27.5455L165.915 25.9091C162.278 24.8636 159.4 23.3712 157.278 21.4318C155.157 19.4924 154.097 16.9545 154.097 13.8182C154.097 11.2121 154.801 8.93939 156.21 7C157.634 5.04545 159.544 3.5303 161.938 2.45454C164.347 1.36363 167.036 0.81818 170.006 0.81818C173.006 0.81818 175.672 1.35606 178.006 2.43182C180.339 3.49242 182.188 4.94697 183.551 6.79545C184.93 8.64394 185.657 10.7424 185.733 13.0909H180.278Z" fill="#00C4F0"/>
</svg>
