<svg width="1326" height="1063" viewBox="0 0 1326 1063" fill="none" xmlns="http://www.w3.org/2000/svg">
<g filter="url(#filter0_d_1_61)">
<path d="M792.656 488.454C792.656 673.198 641.396 823.66 453.944 823.66C266.491 823.66 115.231 673.198 115.231 488.454C115.231 303.71 266.491 153.249 453.944 153.249C641.396 153.249 792.656 303.71 792.656 488.454Z" stroke="#E4E4E4" stroke-width="89" shape-rendering="crispEdges"/>
</g>
<g filter="url(#filter1_d_1_61)">
<path d="M1226.74 755.015C1226.74 868.272 1134.01 960.516 1019.09 960.516C904.163 960.516 811.432 868.272 811.432 755.015C811.432 641.758 904.163 549.514 1019.09 549.514C1134.01 549.514 1226.74 641.758 1226.74 755.015Z" stroke="#00C4F0" stroke-width="55" shape-rendering="crispEdges"/>
</g>
<g filter="url(#filter2_d_1_61)">
<path d="M1238.21 237.235C1238.21 321.961 1168.85 390.911 1082.95 390.911C997.063 390.911 927.702 321.961 927.702 237.235C927.702 152.509 997.063 83.5593 1082.95 83.5593C1168.85 83.5593 1238.21 152.509 1238.21 237.235Z" stroke="#E2A200" stroke-width="34" shape-rendering="crispEdges"/>
</g>
<defs>
<filter id="filter0_d_1_61" x="0.731262" y="42.7488" width="906.425" height="899.411" filterUnits="userSpaceOnUse" color-interpolation-filters="sRGB">
<feFlood flood-opacity="0" result="BackgroundImageFix"/>
<feColorMatrix in="SourceAlpha" type="matrix" values="0 0 0 0 0 0 0 0 0 0 0 0 0 0 0 0 0 0 127 0" result="hardAlpha"/>
<feOffset dy="4"/>
<feGaussianBlur stdDeviation="35"/>
<feComposite in2="hardAlpha" operator="out"/>
<feColorMatrix type="matrix" values="0 0 0 0 1 0 0 0 0 1 0 0 0 0 1 0 0 0 0.25 0"/>
<feBlend mode="normal" in2="BackgroundImageFix" result="effect1_dropShadow_1_61"/>
<feBlend mode="normal" in="SourceGraphic" in2="effect1_dropShadow_1_61" result="shape"/>
</filter>
<filter id="filter1_d_1_61" x="713.932" y="456.014" width="610.306" height="606.002" filterUnits="userSpaceOnUse" color-interpolation-filters="sRGB">
<feFlood flood-opacity="0" result="BackgroundImageFix"/>
<feColorMatrix in="SourceAlpha" type="matrix" values="0 0 0 0 0 0 0 0 0 0 0 0 0 0 0 0 0 0 127 0" result="hardAlpha"/>
<feOffset dy="4"/>
<feGaussianBlur stdDeviation="35"/>
<feComposite in2="hardAlpha" operator="out"/>
<feColorMatrix type="matrix" values="0 0 0 0 0 0 0 0 0 0.756863 0 0 0 0 0.92549 0 0 0 0.25 0"/>
<feBlend mode="normal" in2="BackgroundImageFix" result="effect1_dropShadow_1_61"/>
<feBlend mode="normal" in="SourceGraphic" in2="effect1_dropShadow_1_61" result="shape"/>
</filter>
<filter id="filter2_d_1_61" x="840.702" y="0.55928" width="484.504" height="481.351" filterUnits="userSpaceOnUse" color-interpolation-filters="sRGB">
<feFlood flood-opacity="0" result="BackgroundImageFix"/>
<feColorMatrix in="SourceAlpha" type="matrix" values="0 0 0 0 0 0 0 0 0 0 0 0 0 0 0 0 0 0 127 0" result="hardAlpha"/>
<feOffset dy="4"/>
<feGaussianBlur stdDeviation="35"/>
<feComposite in2="hardAlpha" operator="out"/>
<feColorMatrix type="matrix" values="0 0 0 0 0.886275 0 0 0 0 0.635294 0 0 0 0 0 0 0 0 0.25 0"/>
<feBlend mode="normal" in2="BackgroundImageFix" result="effect1_dropShadow_1_61"/>
<feBlend mode="normal" in="SourceGraphic" in2="effect1_dropShadow_1_61" result="shape"/>
</filter>
</defs>
</svg>
